<svg width="131" height="74" viewBox="0 0 131 74" fill="none" xmlns="http://www.w3.org/2000/svg">
<g id="Group">
<path id="Vector" d="M0 26.966C0.0221074 26.4378 0.0343894 25.912 0.0663223 25.3838C0.0859734 25.062 0.117906 24.7377 0.174403 24.4183C0.309504 23.6837 0.670593 23.3471 1.41488 23.2537C1.76368 23.2095 2.11986 23.1776 2.47112 23.1776C4.20778 23.1776 5.9469 23.1776 7.68357 23.1948C8.52365 23.2021 8.92649 22.8803 8.95597 22.045C8.98545 21.2023 8.95597 20.3547 8.95597 19.512C8.95597 16.5048 8.96088 13.4977 8.9658 10.4905C8.9658 10.2939 8.98299 10.0974 9.0051 9.9033C9.06896 9.35052 9.22617 9.14415 9.77886 9.13187C10.8081 9.1073 11.8398 9.11467 12.869 9.17363C13.5199 9.21049 13.8761 9.55199 13.9694 10.208C14.0726 10.9327 14.1144 11.6722 14.1217 12.4068C14.1439 14.6573 14.1439 16.9077 14.1414 19.1582C14.1414 20.023 14.1095 20.8854 14.0947 21.7502C14.0947 21.8484 14.0947 21.9467 14.1021 22.045C14.1832 22.8754 14.5295 23.1997 15.3622 23.1948C16.3349 23.1899 17.3077 23.1628 18.2779 23.153C19.4767 23.1432 20.6729 23.1432 21.8716 23.1383C22.5815 23.1358 22.95 23.4183 22.977 24.1161C23.0188 25.1946 23.0482 26.2781 22.9917 27.3542C22.9328 28.5064 22.4759 28.9192 21.3116 28.9659C20.2037 29.0101 19.0935 29.0273 17.9832 29.0297C17.1013 29.0297 16.217 29.0027 15.3352 28.9732C14.5418 28.9487 14.2077 29.2091 14.134 30.0051C14.0923 30.4621 14.1095 30.9264 14.1095 31.3883C14.1144 36.9309 14.1217 42.4735 14.1291 48.0161C13.8712 49.618 14.0407 51.2321 14.021 52.8389C13.9916 55.1778 14.0309 57.5167 14.0235 59.8556C14.0186 61.8407 13.9891 63.8234 13.9768 65.8085C13.9768 66.0739 13.9866 66.3392 14.0186 66.6021C14.1045 67.3367 14.4337 67.6413 15.1829 67.6511C16.1065 67.6634 17.0301 67.6511 17.9537 67.6487C19.1131 67.6438 20.2725 67.6364 21.4319 67.6339C23.8883 67.6339 26.3447 67.6364 28.8011 67.6339C29.8131 67.6339 30.8251 67.6094 31.8347 67.5995C31.9919 67.5995 32.1491 67.6094 32.3039 67.6339C32.8296 67.7248 33.1587 67.9926 33.1685 68.5233C33.1882 69.7173 33.1808 70.9163 33.0973 72.1078C33.0506 72.7908 32.6552 73.1029 31.9723 73.1888C31.5743 73.2404 31.169 73.2478 30.7687 73.2699C30.582 73.2797 30.3953 73.2699 30.2086 73.2699C24.2248 73.2773 18.2411 73.2871 12.2573 73.2896C11.8742 73.2896 11.4885 73.2748 11.1127 73.2183C9.86238 73.0291 9.37847 72.5107 9.25811 71.2479C9.21143 70.7492 9.18196 70.248 9.17705 69.7493C9.15494 67.145 9.14757 64.5433 9.12792 61.939C9.10827 59.5706 9.08125 57.2047 9.05668 54.8363C9.03703 52.92 9.01247 51.0061 8.99773 49.0898C8.97317 45.7878 8.9486 42.4883 8.94123 39.1863C8.93386 36.2086 8.95351 33.2334 8.95106 30.2557C8.95106 29.2705 8.70051 29.0371 7.72778 29.0273C6.18517 29.0125 4.64256 28.9978 3.10241 28.9929C2.50305 28.9929 1.9037 29.0273 1.3068 29.0322C0.451974 29.0396 0.14247 28.7546 0.0491277 27.8996C0.0417585 27.8234 0.0171947 27.7497 0 27.676C0 27.4402 0 27.2043 0 26.9685L0 26.966Z" fill="#F1651A"/>
<path id="Vector_2" d="M89.9574 33.3712C89.9574 40.5943 89.9574 47.8149 89.9574 55.038C89.9574 55.4409 89.9377 55.8438 89.9009 56.2443C89.8616 56.6865 89.67 56.9052 89.2278 56.915C88.12 56.9371 87.0097 56.9371 85.9044 56.9125C85.4327 56.9002 85.1601 56.6668 85.0937 56.2025C85.0004 55.5539 84.9636 54.8979 84.9243 54.242C84.912 54.0405 84.9464 53.839 84.7376 53.726C84.5042 53.6007 84.3028 53.6916 84.1186 53.8464C83.5389 54.3329 82.9813 54.8463 82.377 55.2984C80.3259 56.8339 78.0611 57.8953 75.5114 58.2982C73.2491 58.6569 71.0285 58.4579 68.8448 57.7945C65.9855 56.9273 63.4555 55.4827 61.3405 53.3599C58.7343 50.741 57.1401 47.579 56.4449 43.9675C55.7154 40.1717 55.9905 36.4422 57.4914 32.87C59.1101 29.0201 61.6304 25.8901 65.2879 23.7748C67.3488 22.5832 69.594 21.9887 71.9668 21.8855C74.4871 21.7749 76.9484 22.0501 79.2844 23.0697C81.0579 23.8436 82.6349 24.9123 84.0424 26.2365C84.2168 26.4011 84.3863 26.578 84.659 26.4552C84.9488 26.325 84.9979 26.0768 84.9807 25.7918C84.9611 25.4405 84.9365 25.0867 84.9365 24.7354C84.9341 21.1976 84.9365 17.6597 84.9341 14.1219C84.9341 12.9524 84.912 11.783 84.8997 10.616C84.8997 10.5472 84.8997 10.4784 84.8997 10.4096C84.9243 9.43672 85.305 9.05099 86.2802 9.06327C87.0638 9.0731 87.8523 9.08048 88.6309 9.16155C89.39 9.24017 89.7461 9.61606 89.8346 10.3826C89.9132 11.0631 89.9549 11.7535 89.9549 12.439C89.9623 19.4164 89.9598 26.3913 89.9598 33.3687L89.9574 33.3712ZM73.3178 52.4141C74.4453 52.4214 75.5482 52.2495 76.6119 51.876C81.4558 50.1685 84.6467 45.8764 84.8678 40.7171C85.0053 37.4962 84.0498 34.6119 82.0233 32.1034C80.5126 30.2338 78.6433 28.8604 76.3073 28.1873C74.6271 27.7033 72.9248 27.6787 71.2004 27.9023C68.6556 28.2315 66.4817 29.3076 64.7524 31.192C61.962 34.2311 60.8542 37.8451 61.3651 41.9234C61.8171 45.5349 63.5807 48.3849 66.6168 50.4093C68.6384 51.7581 70.8885 52.3993 73.3203 52.4165L73.3178 52.4141Z" fill="#4796D0"/>
<path id="Vector_3" d="M65.5138 0C86.4029 0 107.292 0 128.181 0C128.8 0 129.419 0 130.038 0C130.699 0 130.994 0.292377 130.999 0.950808C131.001 1.36356 130.999 1.7763 130.999 2.18905C130.999 24.9491 130.999 47.7092 130.999 70.4693C130.999 70.7224 130.979 70.9779 130.947 71.2309C130.915 71.4938 130.736 71.624 130.488 71.6535C130.313 71.6732 130.134 71.6781 129.957 71.6781C128.257 71.6781 126.557 71.6781 124.858 71.6781C124.582 71.6781 124.307 71.7002 124.032 71.6977C123.448 71.6904 123.18 71.4447 123.145 70.8673C123.128 70.5848 123.133 70.2949 123.165 70.0148C123.224 69.5087 123.482 69.2655 123.978 69.2655C125.197 69.2655 126.412 69.2802 127.631 69.29C127.68 69.29 127.729 69.2949 127.778 69.2974C128.67 69.3146 128.94 69.0443 128.935 68.1501C128.928 66.7349 128.928 65.3198 128.928 63.9047C128.928 44.1223 128.928 24.3398 128.928 4.55744C128.928 4.20365 128.945 3.85232 128.967 3.49854C129.016 2.74921 128.719 2.35119 127.967 2.28977C127.334 2.23818 126.692 2.26275 126.054 2.26029C125.592 2.26029 125.13 2.27257 124.668 2.27257C83.4994 2.27257 42.3305 2.27257 1.16148 2.27257C0.984619 2.27257 0.807759 2.27257 0.630899 2.25783C0.296831 2.22835 0.095408 2.05637 0.0733006 1.72224C0.0487367 1.35126 0.0536495 0.97537 0.0978644 0.606845C0.144536 0.216209 0.328764 0.063889 0.724242 0.0270365C0.957598 0.00492506 1.19587 0 1.43168 0C22.7924 0 44.1531 0 65.5138 0Z" fill="#192C68"/>
<path id="Vector_4" d="M22.0312 39.867C22.1885 34.7445 23.8121 30.4966 27.1651 26.9514C29.6681 24.3054 32.7558 22.7503 36.3127 22.0795C38.8771 21.5955 41.4121 21.6643 43.9053 22.48C46.207 23.2318 48.2114 24.4872 49.9407 26.1603C50.8839 27.0743 51.7166 28.0988 52.596 29.0741C52.6476 29.1331 52.6943 29.197 52.7385 29.2609C53.2789 30.0249 53.2249 30.4475 52.5862 31.1305C52.1318 31.617 51.7363 32.1599 51.3015 32.666C51.0411 32.9707 50.7734 33.2778 50.4713 33.5357C49.8915 34.0296 49.388 33.9878 48.8795 33.4178C48.6118 33.1181 48.3686 32.7938 48.15 32.4572C47.0765 30.8087 45.5855 29.6515 43.8243 28.8383C39.248 26.7229 33.8391 27.885 30.3436 31.7152C25.0919 37.4691 26.7377 46.4218 32.4095 50.365C34.4409 51.7777 36.7057 52.5246 39.1866 52.4705C42.181 52.4042 44.7331 51.2249 46.8948 49.1931C47.6636 48.4684 48.3367 47.6404 49.0465 46.8518C49.6778 46.154 49.8522 46.1295 50.5007 46.8125C51.3113 47.6674 52.0949 48.547 52.8785 49.4265C53.2642 49.8589 53.2912 50.1488 52.9203 50.6058C52.2325 51.451 51.5324 52.2887 50.7955 53.0897C49.6115 54.3746 48.2875 55.4924 46.767 56.372C44.9149 57.4432 42.908 58.0082 40.7906 58.2072C38.7911 58.3964 36.8064 58.3129 34.8609 57.7699C30.8079 56.6349 27.6367 54.2665 25.254 50.8245C23.424 48.1785 22.466 45.218 22.1639 42.0315C22.0877 41.2207 22.0632 40.405 22.0312 39.867Z" fill="#669B1F"/>
<path id="Vector_5" d="M105.384 21.8904C108.781 21.711 111.822 22.9051 114.738 24.5438C114.875 24.6199 115.005 24.7084 115.128 24.8067C115.548 25.1383 115.701 25.5314 115.514 26.0301C115.113 27.1038 114.676 28.1676 114.256 29.2339C114.239 29.2805 114.214 29.3223 114.19 29.3665C113.647 30.3615 112.935 30.5974 112.09 29.853C109.513 27.5829 104.03 27.261 100.849 28.5754C100.085 28.8899 99.3558 29.283 98.7589 29.8751C97.5921 31.0347 97.5823 32.8872 98.7417 34.0566C99.6579 34.9804 100.783 35.6044 101.987 36.0368C103.537 36.5921 105.121 37.0515 106.698 37.5208C108.756 38.13 110.773 38.8278 112.583 40.0193C115.042 41.6359 116.688 43.8422 117.111 46.783C117.685 50.7852 116.199 53.9348 112.819 56.1288C110.228 57.8093 107.351 58.5709 104.256 58.4358C101.78 58.3277 99.4418 57.657 97.1893 56.6595C96.6145 56.404 96.0495 56.1313 95.487 55.8512C95.2684 55.7431 95.0645 55.6006 94.8655 55.4581C94.3423 55.0896 94.1434 54.5736 94.2981 53.9643C94.4332 53.4337 94.615 52.9128 94.8164 52.4042C95.0719 51.7556 95.3642 51.1218 95.6516 50.4879C95.7351 50.3012 95.8456 50.1243 95.9635 49.9572C96.1109 49.7509 96.3222 49.6673 96.558 49.7828C96.9019 49.9499 97.2433 50.1218 97.5675 50.3233C99.007 51.2151 100.535 51.8809 102.203 52.2126C104.445 52.6573 106.644 52.4411 108.791 51.709C109.415 51.4952 110.009 51.1734 110.581 50.8368C112.456 49.7386 112.488 47.0729 110.876 45.7954C109.724 44.8814 108.437 44.2132 107.042 43.7734C105.462 43.2747 103.858 42.8472 102.274 42.3632C100.189 41.7244 98.189 40.8891 96.4769 39.4985C93.9174 37.42 92.5811 34.7372 92.753 31.4254C92.9176 28.256 94.4381 25.814 97.091 24.0893C99.6014 22.4555 102.375 21.7872 105.384 21.9002V21.8904Z" fill="#5FBBC7"/>
<path id="Vector_6" d="M38.877 67.9681C38.9212 67.9607 38.9408 67.9533 38.9605 67.9533C39.6302 67.9288 40.1747 68.1753 40.594 68.6928C41.2498 69.5011 41.9081 70.307 42.564 71.1153C42.6229 71.189 42.6868 71.2578 42.7998 71.3855V67.9681H44.0157V73.3068C43.6644 73.3068 43.3132 73.3166 42.9644 73.2994C42.8882 73.2945 42.8047 73.2011 42.7482 73.1299C41.9106 72.1029 41.0754 71.071 40.2402 70.0416C40.2108 70.0048 40.1739 69.9704 40.1002 69.8893V73.2871H38.877V67.9681Z" fill="#192C68"/>
<path id="Vector_7" d="M73.6174 67.9684V73.3046C73.2563 73.3046 72.8976 73.312 72.539 73.2972C72.4727 73.2948 72.4014 73.2014 72.3474 73.1375C71.5221 72.1253 70.6992 71.1106 69.8763 70.096C69.8296 70.0395 69.778 69.9854 69.6896 69.8896V73.2825H68.4639V67.9512C68.8078 67.9512 69.1492 67.9364 69.4882 67.961C69.5815 67.9684 69.6822 68.0765 69.751 68.1624C70.5739 69.1648 71.3919 70.1721 72.2099 71.177C72.2516 71.2286 72.2983 71.2777 72.3867 71.3784V67.9708H73.6174V67.9684Z" fill="#192C68"/>
<path id="Vector_8" d="M104.669 67.9512C105.008 67.9512 105.322 67.9364 105.634 67.961C105.74 67.9684 105.86 68.0593 105.934 68.1477C106.759 69.1476 107.575 70.1549 108.395 71.1598C108.442 71.2163 108.494 71.2703 108.582 71.3711V67.9782H109.808V73.3095C109.452 73.3095 109.103 73.3193 108.754 73.3021C108.678 73.2972 108.597 73.2014 108.538 73.1302C107.712 72.1179 106.89 71.1033 106.067 70.0886C106.025 70.037 105.978 69.9854 105.892 69.8847V73.2898H104.669V67.9536V67.9512Z" fill="#192C68"/>
<path id="Vector_9" d="M56.6148 67.8994C57.7078 67.9535 58.7715 68.0051 59.8375 68.0665C59.98 68.0738 60.1225 68.1353 60.26 68.1844C60.8471 68.4006 61.2475 68.779 61.3187 69.4325C61.3973 70.1474 61.1763 70.7297 60.5425 71.1154C60.4271 71.1866 60.3018 71.2431 60.1495 71.3242C60.626 71.9777 61.0927 72.6214 61.5914 73.3093C61.0927 73.3093 60.6555 73.3167 60.2183 73.302C60.1446 73.2995 60.0562 73.2086 60.007 73.1374C59.6779 72.6509 59.3635 72.1522 59.0269 71.6682C58.9631 71.5773 58.8206 71.5011 58.7051 71.4913C58.4251 71.4667 58.1426 71.4839 57.8356 71.4839V73.2897H56.6123V67.9019L56.6148 67.8994ZM57.8528 68.8576V70.683C58.3956 70.6289 58.9164 70.6191 59.4224 70.5184C59.8744 70.4275 60.0955 70.0909 60.0758 69.6954C60.0562 69.3121 59.8203 69.0222 59.3635 68.9558C58.8722 68.8846 58.3711 68.8895 57.8552 68.8576H57.8528Z" fill="#192C68"/>
<path id="Vector_10" d="M98.5742 68.381C98.3949 68.6881 98.2376 68.9583 98.0755 69.2409C97.4811 68.8355 96.8375 68.7299 96.1522 68.8159C95.0787 68.9485 94.472 69.5971 94.4671 70.6192C94.4622 71.6486 95.0493 72.2923 96.1473 72.4077C96.4838 72.4421 96.8326 72.4004 97.1716 72.3635C97.2453 72.3561 97.3534 72.2259 97.3607 72.1424C97.3853 71.8795 97.3632 71.6117 97.3705 71.3488C97.3755 71.1892 97.2993 71.1449 97.1544 71.1498C96.9014 71.1548 96.6459 71.1498 96.3683 71.1498V70.3096C96.7245 70.3096 97.0733 70.3096 97.4246 70.3096C97.7759 70.3096 98.1124 70.3096 98.4686 70.3096C98.4808 70.3735 98.5029 70.4275 98.5029 70.4816C98.5029 71.2186 98.5128 71.9557 98.4956 72.6903C98.4956 72.7959 98.3998 72.9556 98.3064 72.9949C97.0684 73.5256 95.8034 73.5772 94.5654 73.0293C93.5312 72.5699 93.0424 71.4619 93.2266 70.2089C93.3814 69.1696 93.9513 68.4547 94.9289 68.1034C96.1571 67.6611 97.3681 67.7004 98.5693 68.3785L98.5742 68.381Z" fill="#192C68"/>
<path id="Vector_11" d="M54.276 67.9634H55.4698V68.2828C55.4698 69.1476 55.4698 70.0099 55.4698 70.8747C55.4698 72.4766 54.7501 73.2849 53.1559 73.3905C52.6548 73.4225 52.1316 73.3733 51.6427 73.2579C50.6504 73.0196 50.2303 72.2653 50.1935 71.3145C50.1493 70.2089 50.1836 69.0984 50.1836 67.9708H51.4045C51.4045 68.0641 51.4045 68.1673 51.4045 68.2705C51.4045 69.0862 51.4045 69.8994 51.4045 70.715C51.4045 70.7838 51.4045 70.8526 51.4045 70.9214C51.4315 72.1449 52.2642 72.7247 53.4408 72.3439C53.9837 72.167 54.2244 71.7592 54.244 71.231C54.2784 70.29 54.2711 69.3466 54.2784 68.4056C54.2784 68.268 54.2784 68.1329 54.2784 67.9634H54.276Z" fill="#192C68"/>
<path id="Vector_12" d="M84.2666 70.1229V71.0122H81.7317V72.3512H84.5909V73.2922H80.4961V67.9731H84.5393V68.8773H81.7292V70.1253H84.2691L84.2666 70.1229Z" fill="#192C68"/>
<path id="Vector_13" d="M99.6016 67.9658H103.642V68.8798H100.827V70.1278H103.37V71.0049H100.83V72.3537H103.694V73.2898H99.6016V67.9634V67.9658Z" fill="#192C68"/>
<path id="Vector_14" d="M93.1309 73.3018H91.8192C91.6595 72.9136 91.4851 72.523 91.3353 72.1225C91.2714 71.9505 91.1855 71.8818 90.9963 71.8867C90.4264 71.899 89.859 71.899 89.2891 71.8867C89.0975 71.8818 89.014 71.9481 88.9526 72.1225C88.8322 72.464 88.6971 72.8006 88.5473 73.1323C88.5129 73.2085 88.4048 73.2944 88.3262 73.2994C87.9651 73.3165 87.6016 73.3067 87.1963 73.3067C87.464 72.6876 87.717 72.098 87.975 71.5083C88.4564 70.4027 88.9452 69.2996 89.4169 68.1916C89.493 68.0122 89.579 67.9336 89.7804 67.9484C90.1218 67.9705 90.5443 67.8452 90.7875 68.0049C91.0282 68.1621 91.097 68.5921 91.2346 68.9041C91.8266 70.2602 92.4136 71.6189 93.0007 72.9775C93.0425 73.0758 93.0793 73.1741 93.1309 73.3043V73.3018ZM90.1464 69.0589C89.8615 69.791 89.606 70.4445 89.3456 71.1177H90.9472C90.6843 70.4421 90.4313 69.7935 90.1464 69.0589Z" fill="#192C68"/>
<path id="Vector_15" d="M61.8447 73.3067C62.0879 72.749 62.3139 72.2282 62.5399 71.7098C63.0484 70.5403 63.5642 69.3734 64.0628 68.199C64.1439 68.0049 64.2422 67.9336 64.4509 67.9459C64.7826 67.968 65.1928 67.8452 65.431 67.9975C65.6669 68.1498 65.7356 68.565 65.8683 68.8672C66.4652 70.2357 67.0572 71.6042 67.6516 72.9726C67.6934 73.0709 67.7327 73.1691 67.7818 73.2895H66.4652C66.3006 72.8915 66.1311 72.496 65.9764 72.0931C65.9199 71.9432 65.8437 71.8818 65.6767 71.8842C65.0871 71.8941 64.4976 71.8965 63.9081 71.8842C63.7386 71.8818 63.6674 71.9456 63.6133 72.0931C63.493 72.4247 63.348 72.749 63.2277 73.0807C63.1712 73.2404 63.095 73.3166 62.9133 73.3067C62.5743 73.2895 62.2328 73.3018 61.8472 73.3018L61.8447 73.3067ZM64.8341 69.1498C64.812 69.1498 64.7875 69.1473 64.7654 69.1449C64.5124 69.7935 64.2594 70.4421 63.999 71.1128H65.5981C65.3352 70.4396 65.0847 69.7935 64.8341 69.1498Z" fill="#192C68"/>
<path id="Vector_16" d="M49.2796 68.3197C49.1102 68.6342 48.9652 68.8995 48.8105 69.1845C48.2774 68.87 47.7149 68.7202 47.1131 68.7693C46.9485 68.7816 46.7668 68.789 46.6268 68.8651C46.4867 68.9413 46.3099 69.0961 46.3001 69.2263C46.2902 69.3737 46.4106 69.5874 46.5408 69.6759C46.7471 69.8159 47.005 69.8798 47.2433 69.9658C47.6855 70.1255 48.1448 70.2459 48.5698 70.44C49.1667 70.7102 49.5032 71.1819 49.4516 71.8674C49.4049 72.5086 49.0365 72.9312 48.4592 73.1351C47.2359 73.5675 46.0544 73.4397 44.8975 72.7838C45.0645 72.4742 45.2168 72.1941 45.3814 71.8895C45.966 72.285 46.5924 72.484 47.2826 72.4226C47.5012 72.403 47.7321 72.3514 47.9286 72.2556C48.2504 72.0959 48.2897 71.6954 48.0048 71.4767C47.8058 71.3269 47.5651 71.2237 47.3293 71.1328C46.8822 70.9608 46.4106 70.8453 45.9734 70.6488C45.1971 70.3024 44.8926 69.6833 45.0915 68.9708C45.1922 68.6072 45.4207 68.3344 45.7498 68.1797C46.9289 67.6293 48.0858 67.7448 49.2772 68.3246L49.2796 68.3197Z" fill="#192C68"/>
<path id="Vector_17" d="M79.2231 72.0169C79.368 72.297 79.5081 72.5624 79.6825 72.8965C79.3115 73.039 78.9775 73.2036 78.6237 73.292C77.9409 73.4591 77.2433 73.464 76.5506 73.3117C75.3052 73.039 74.5683 72.1201 74.5142 70.8426C74.4332 68.8968 75.7768 67.914 77.4742 67.8379C78.4567 67.7937 79.1298 67.9804 79.6775 68.4079C79.5252 68.6707 79.3705 68.9385 79.2035 69.2284C78.6066 68.8206 77.963 68.7199 77.2801 68.8304C76.3147 68.9877 75.7375 69.6977 75.7842 70.6657C75.8382 71.7491 76.4228 72.3634 77.4545 72.4223C78.0735 72.4592 78.6631 72.3535 79.2207 72.0169H79.2231Z" fill="#192C68"/>
<path id="Vector_18" d="M115.421 72.0149C115.57 72.3023 115.708 72.5677 115.887 72.9141C115.457 73.059 115.072 73.2286 114.671 73.3195C113.984 73.4742 113.286 73.462 112.603 73.2728C111.424 72.946 110.763 72.064 110.714 70.8381C110.638 68.9316 111.925 67.9341 113.65 67.8383C114.3 67.8014 114.944 67.8677 115.538 68.1822C115.649 68.2412 115.755 68.31 115.89 68.3911C115.725 68.6761 115.57 68.9438 115.406 69.2313C114.816 68.8284 114.183 68.7276 113.507 68.8308C112.539 68.9782 111.95 69.6784 111.982 70.644C112.018 71.7201 112.596 72.349 113.63 72.4227C114.249 72.4669 114.843 72.3687 115.421 72.0173V72.0149Z" fill="#192C68"/>
<path id="Vector_19" d="M121.663 67.9513C120.965 69.025 120.309 70.0396 119.643 71.0469C119.496 71.2681 119.42 71.4867 119.43 71.757C119.449 72.2582 119.435 72.7594 119.435 73.2827H118.206C118.206 72.7323 118.216 72.1845 118.202 71.639C118.197 71.4818 118.152 71.3074 118.069 71.1771C117.393 70.1183 116.706 69.0667 115.983 67.9538C116.475 67.9538 116.919 67.9464 117.361 67.9636C117.428 67.9661 117.501 68.0865 117.548 68.1651C117.919 68.7768 118.287 69.3935 118.656 70.0077C118.71 70.0986 118.769 70.1871 118.845 70.3074C118.909 70.2165 118.961 70.1526 119.002 70.0814C119.385 69.4402 119.771 68.8014 120.145 68.1552C120.235 67.998 120.339 67.939 120.518 67.9464C120.877 67.9612 121.238 67.9513 121.663 67.9513Z" fill="#192C68"/>
<path id="Vector_20" d="M37.6415 73.2971H36.4551V67.9731H37.6415V73.2971Z" fill="#192C68"/>
</g>
</svg>
